<svg width="308" height="308" viewBox="0 0 308 308" fill="none" xmlns="http://www.w3.org/2000/svg">
<rect width="308" height="308" rx="154" fill="#1E1E1E"/>
<path d="M191.375 196.93V194.2L194.105 193.42C195.838 192.9 196.965 192.12 197.485 191.08C198.005 190.04 198.265 188.653 198.265 186.92V121.14C198.265 119.32 197.962 117.933 197.355 116.98C196.835 115.94 195.708 115.16 193.975 114.64L191.375 113.73V111H222.965V113.73L220.235 114.64C218.588 115.073 217.505 115.81 216.985 116.85C216.465 117.89 216.205 119.32 216.205 121.14V187.05C216.205 188.783 216.508 190.17 217.115 191.21C217.722 192.163 218.848 192.9 220.495 193.42L222.965 194.2V196.93H191.375ZM238.695 196.93V194.2L240.255 193.81C241.902 193.377 242.768 192.553 242.855 191.34C242.942 190.127 242.378 188.74 241.165 187.18L216.335 152.73L248.055 120.49C249.355 119.19 250.048 118.02 250.135 116.98C250.308 115.853 249.528 114.987 247.795 114.38L245.585 113.73V111H266.125V113.73L262.745 114.64C260.752 115.247 259.148 115.983 257.935 116.85C256.722 117.63 255.335 118.843 253.775 120.49L230.635 144.02L260.405 186.53C261.792 188.437 263.092 189.953 264.305 191.08C265.605 192.207 267.338 193.073 269.505 193.68L271.325 194.2V196.93H238.695Z" fill="#F0EFEB"/>
<path d="M133.542 196.93V194.2L137.312 193.29C139.046 192.857 140.259 192.12 140.952 191.08C141.646 190.04 142.036 188.653 142.122 186.92V163.39L121.192 120.62C120.326 118.887 119.502 117.587 118.722 116.72C117.942 115.853 116.816 115.16 115.342 114.64L113.002 113.73V111H147.452V113.73L145.112 114.51C143.206 115.117 142.166 116.113 141.992 117.5C141.819 118.8 142.209 120.49 143.162 122.57L157.982 155.33L173.972 121.66C174.752 120.1 175.099 118.583 175.012 117.11C174.926 115.637 174.016 114.683 172.282 114.25L170.462 113.73V111H187.492V113.73L184.892 114.51C183.159 115.03 181.902 115.81 181.122 116.85C180.429 117.89 179.692 119.277 178.912 121.01L160.842 158.58V186.92C160.842 190.473 162.402 192.597 165.522 193.29L169.422 194.2V196.93H133.542Z" fill="#F0EFEB"/>
<path d="M37 196.93V194.2L39.6 193.29C42.3733 192.423 43.76 190.257 43.76 186.79C43.8467 181.85 43.89 176.823 43.89 171.71C43.89 166.51 43.89 161.223 43.89 155.85V151.3C43.89 146.273 43.89 141.247 43.89 136.22C43.89 131.193 43.8467 126.167 43.76 121.14C43.76 117.587 42.4167 115.377 39.73 114.51L37 113.73V111H71.19C80.29 111 88.1333 112.69 94.72 116.07C101.307 119.45 106.377 124.347 109.93 130.76C113.483 137.087 115.26 144.757 115.26 153.77C115.26 162.957 113.31 170.757 109.41 177.17C105.597 183.583 100.18 188.48 93.16 191.86C86.2267 195.24 78.1233 196.93 68.85 196.93H37ZM62.61 193.16H69.24C75.3933 193.16 80.3767 191.947 84.19 189.52C88.09 187.093 90.95 183.02 92.77 177.3C94.59 171.493 95.5 163.693 95.5 153.9C95.5 144.107 94.59 136.35 92.77 130.63C90.95 124.91 88.1333 120.837 84.32 118.41C80.5933 115.983 75.74 114.77 69.76 114.77H62.61C62.5233 120.75 62.48 126.817 62.48 132.97C62.48 139.037 62.48 145.147 62.48 151.3V155.72C62.48 162.22 62.48 168.59 62.48 174.83C62.48 180.983 62.5233 187.093 62.61 193.16Z" fill="#F0EFEB"/>
</svg>
